/vscmnt/brussel_pixiu_data/_data_brussel/112/vsc11236/PredSimResults/SUBJ09opt3D/weighted-LRposFixed/expIG/worker_04.mot
version=1
nRows=9
nColumns=50
inDegrees=yes
endheader
                time	         pelvis_tilt	         pelvis_list	     pelvis_rotation	           pelvis_tx	           pelvis_ty	           pelvis_tz	       hip_flexion_r	     hip_adduction_r	      hip_rotation_r	        knee_angle_r	       ankle_angle_r	         mtp_angle_r	       hip_flexion_l	     hip_adduction_l	      hip_rotation_l	        knee_angle_l	       ankle_angle_l	         mtp_angle_l	    lumbar_extension	      lumbar_bending	     lumbar_rotation	 ercspn_r/activation	 intobl_r/activation	 extobl_r/activation	    abd_r/activation	    add_r/activation	hamstrings_r/activation	bifemsh_r/activation	glut_max_r/activation	iliopsoas_r/activation	rect_fem_r/activation	  vasti_r/activation	gastroc_r/activation	 soleus_r/activation	tib_ant_r/activation	 ercspn_l/activation	 intobl_l/activation	 extobl_l/activation	    abd_l/activation	    add_l/activation	hamstrings_l/activation	bifemsh_l/activation	glut_max_l/activation	iliopsoas_l/activation	rect_fem_l/activation	  vasti_l/activation	gastroc_l/activation	 soleus_l/activation	tib_ant_l/activation	
          0.66987601	         -3.89792624	          1.29118697	         -7.74218952	          0.75026113	          0.99503944	          0.00198548	        -11.23384486	         -2.65896318	         -4.78137478	        -12.47316809	          5.13773601	         36.36872942	         24.44327408	         -0.21082624	         -6.09492742	          1.89575878	          2.95513762	          0.22017412	        -12.61745836	          1.47619024	         10.70227938	          0.00999999	          0.00999999	          0.00999999	          0.05507133	          0.00999999	          0.01333310	          0.28108457	          0.01830585	          0.00999999	          0.01000000	          0.00999999	          0.31578653	          0.26282387	          0.01223291	          0.04222613	          0.20751015	          0.05378209	          0.00999999	          0.24481626	          0.05455663	          0.01223291	          0.00999999	          0.10290677	          0.02739368	          0.03420014	          0.01382726	          0.01261543	          0.31473889	
          0.68327353	         -3.97492502	          1.46312253	         -7.71213197	          0.77041645	          0.99283516	          0.00095174	        -11.75272954	         -3.07360749	         -5.35381005	        -13.40446433	          4.11461599	         38.11517796	         24.03128991	          0.21291602	         -6.51816884	          1.29487782	          2.28395686	          0.25571457	        -11.98154061	          0.94064391	         10.89854161	          0.00999999	          0.00999999	          0.00999999	          0.04501896	          0.00999999	          0.02258146	          0.25668153	          0.01496442	          0.00999999	          0.00999999	          0.00999999	          0.28948757	          0.24103699	          0.00999999	          0.03451844	          0.16963256	          0.04396505	          0.00999999	          0.27816598	          0.06017423	          0.00999999	          0.04879400	          0.08412282	          0.02239341	          0.06240640	          0.01130332	          0.01031269	          0.33627602	
          0.69667105	         -4.02448707	          1.66822943	         -7.64908155	          0.79105822	          0.99072616	         -0.00003680	        -12.14611345	         -3.54121433	         -5.95371365	        -14.64935671	          2.96221600	         39.84646367	         23.51236995	          0.58928533	         -6.79944834	          0.34268658	          1.61728807	          0.21674070	        -11.31168785	          0.34584821	         11.03592237	          0.00999999	          0.00999999	          0.00999999	          0.03680148	          0.00999999	          0.03325903	          0.23024999	          0.01223291	          0.02594547	          0.00999999	          0.00999999	          0.25346991	          0.21466650	          0.00999999	          0.02821766	          0.13866890	          0.03593995	          0.06890559	          0.22739131	          0.07035057	          0.00999999	          0.05663979	          0.06876757	          0.01830586	          0.05101513	          0.01223291	          0.01223291	          0.39304425	
          0.71006857	         -4.05334162	          1.92503289	         -7.55151238	          0.81183854	          0.98899092	         -0.00109378	        -12.30961887	         -4.09477463	         -6.57481987	        -16.32715803	          1.64079481	         41.47567805	         22.83526613	          1.02324847	         -7.13110579	         -0.33736669	          0.71876745	          0.20239791	        -10.64251287	         -0.31510811	         11.10693534	          0.00999999	          0.00999999	          0.00999999	          0.03008397	          0.00999999	          0.05112729	          0.18822161	          0.00999999	          0.06121555	          0.00999999	          0.00999999	          0.20720312	          0.17548263	          0.00999999	          0.02306699	          0.11335716	          0.02937970	          0.12855671	          0.18588474	          0.07192218	          0.01496442	          0.07222503	          0.05621517	          0.01496442	          0.04170315	          0.00999999	          0.00999999	          0.45606410	
          0.72346609	         -4.06662889	          2.21746942	         -7.42415661	          0.83233814	          0.98790705	         -0.00224069	        -12.14743732	         -4.72839197	         -7.20798148	        -18.54488921	          0.14829134	         42.79034382	         22.10502439	          1.50515736	         -7.48676190	         -0.93195387	         -0.06684371	          0.15893175	        -10.02189940	         -1.02127767	         11.11670327	          0.06198480	          0.00999999	          0.00999999	          0.02459263	          0.00999999	          0.06578031	          0.15386483	          0.00999999	          0.06378628	          0.00999999	          0.00999999	          0.16938157	          0.14345114	          0.00999999	          0.01885649	          0.09266566	          0.02401691	          0.19250407	          0.15195451	          0.07074457	          0.01223291	          0.08896551	          0.04595401	          0.01223291	          0.03409092	          0.00999999	          0.00999999	          0.48659467	
          0.73686361	         -4.06917774	          2.53206804	         -7.27665373	          0.85219404	          0.98774424	         -0.00346299	        -11.59358162	         -5.43817562	         -7.86372712	        -21.35430458	         -1.47721091	         43.43567980	         21.39296773	          2.01555800	         -7.79003033	         -1.59063937	         -0.40843638	          0.11764597	         -9.48684796	         -1.75554893	         11.07412391	          0.08164828	          0.00999999	          0.00999999	          0.02010365	          0.07622462	          0.06932877	          0.12577931	          0.00999999	          0.09515008	          0.00999999	          0.00999999	          0.13846372	          0.11726647	          0.00999999	          0.01541454	          0.07575105	          0.01963302	          0.22277102	          0.12421770	          0.06946318	          0.00999999	          0.12712468	          0.03756585	          0.00999999	          0.07271319	          0.00999999	          0.00999999	          0.47958445	
          0.75026113	         -4.06555843	          2.82665716	         -7.10820469	          0.87117749	          0.98868912	         -0.00472016	        -10.61561366	         -6.19200559	         -8.56738058	        -24.78853218	         -3.11795353	         42.92014574	         20.68890471	          2.51166817	         -8.01315619	         -2.25929804	         -0.35229824	          0.08700298	         -9.06266544	         -2.47082662	         10.98036713	          0.08122777	          0.00999999	          0.00999999	          0.01643406	          0.11173780	          0.06940648	          0.10282035	          0.00999999	          0.07778199	          0.00999999	          0.00999999	          0.11318943	          0.09586139	          0.00999999	          0.02104567	          0.06192393	          0.01604933	          0.22345137	          0.12765689	          0.07188310	          0.00999999	          0.13126200	          0.03070882	          0.00999999	          0.09136696	          0.00999999	          0.01000000	          0.44263658	
          0.76365866	         -4.05621857	          3.04891363	         -6.91369671	          0.88930470	          0.99064741	         -0.00596648	         -9.26822264	         -6.94423720	         -9.31020798	        -28.70605980	         -4.91363114	         41.31617118	         19.96035309	          2.93929661	         -8.17747634	         -2.87000972	         -0.02469253	          0.07577757	         -8.74964284	         -3.10940568	         10.83211700	          0.06640097	          0.00999999	          0.00999999	          0.01343429	          0.13670602	          0.07266942	          0.08405217	          0.00999999	          0.06358415	          0.00999999	          0.00999999	          0.09252854	          0.07836346	          0.01943957	          0.01720412	          0.05062073	          0.01311979	          0.20661078	          0.12875621	          0.07702759	          0.00999999	          0.12410892	          0.02510343	          0.00999999	          0.09423023	          0.00999999	          0.00999999	          0.39443056	
          0.77705618	         -4.03869518	          3.15858921	         -6.68802893	          0.90669625	          0.99333300	         -0.00716097	         -7.64459109	         -7.64969196	        -10.04641198	        -32.93680244	         -6.77754637	         38.52109373	         19.17831275	          3.25679906	         -8.29294476	         -3.36938929	          0.41964050	          0.08097471	         -8.53670281	         -3.62755962	         10.62471673	          0.05428055	          0.01545834	          0.00999999	          0.01098208	          0.15977034	          0.06398043	          0.06870982	          0.00999999	          0.05197790	          0.00999999	          0.00999999	          0.07563897	          0.06405949	          0.06958255	          0.01406379	          0.04138074	          0.01072498	          0.18816842	          0.12759807	          0.07993569	          0.00999999	          0.13055316	          0.02052121	          0.00999999	          0.07834965	          0.00999999	          0.00999999	          0.34914591	
